<?xml version="1.0" encoding="iso-8859-1"?>
<!-- Generator: Adobe Illustrator 19.0.0, SVG Export Plug-In . SVG Version: 6.00 Build 0)  -->
<svg version="1.1" id="Capa_1" xmlns="http://www.w3.org/2000/svg" xmlns:xlink="http://www.w3.org/1999/xlink" x="0px" y="0px"
	 viewBox="0 0 490.1 490.1" style="enable-background:new 0 0 490.1 490.1;" xml:space="preserve">
<g>
	<g>
		<path d="M469.2,0.6H20.8C9.4,0.6,0,10,0,21.4v348.5c0,11.4,9.4,20.8,20.8,20.8h202.9v57.2h-62.4c-11.4,0-20.8,9.4-20.8,20.8
			s9.4,20.8,20.8,20.8h166.5c11.4,0,20.8-9.4,20.8-20.8s-9.4-20.8-20.8-20.8h-62.4v-57.2h202.9c11.4,0,20.8-9.4,21.8-20.8V21.4
			C490,10,480.6,0.6,469.2,0.6z M448.4,350.2H40.6v-309h407.8V350.2z"/>
		<path d="M166.5,308.6h156.1c44.7,0,82.2-35.4,82.2-79.1c0-32.3-20.8-60.3-51-72.8c-15.6-43.7-59.3-73.9-109.2-73.9
			S151,113,135.4,157.7c-31.2,12.5-51,40.6-51,72.8C84.3,273.2,120.7,308.6,166.5,308.6z M156.1,193.1c8.3-1,13.5-7.3,15.6-14.6
			c7.3-31.2,37.5-54.1,72.8-54.1c35.4,0,65.5,22.9,72.8,54.1c2.1,7.3,8.3,12.5,15.6,14.6c18.7,4.2,31.2,19.8,31.2,36.4
			c0,20.8-18.7,37.5-41.6,37.5h-156c-22.9,0-41.6-16.6-41.6-37.5C124.8,212.8,138.4,197.2,156.1,193.1z"/>
	</g>
</g>
<g>
</g>
<g>
</g>
<g>
</g>
<g>
</g>
<g>
</g>
<g>
</g>
<g>
</g>
<g>
</g>
<g>
</g>
<g>
</g>
<g>
</g>
<g>
</g>
<g>
</g>
<g>
</g>
<g>
</g>
</svg>
