<?xml version="1.0" encoding="iso-8859-1"?>
<!-- Generator: Adobe Illustrator 19.0.0, SVG Export Plug-In . SVG Version: 6.00 Build 0)  -->
<svg version="1.1" id="Layer_1" xmlns="http://www.w3.org/2000/svg" xmlns:xlink="http://www.w3.org/1999/xlink" x="0px" y="0px"
	 viewBox="0 0 512.002 512.002" style="enable-background:new 0 0 512.002 512.002;" xml:space="preserve">
<g>
	<g>
		<g>
			<path d="M325.486,290.709c-20.166,0-36.571,16.406-36.571,36.571c0,20.166,16.406,36.571,36.571,36.571
				c20.165,0,36.571-16.406,36.571-36.571C362.057,307.115,345.651,290.709,325.486,290.709z M325.486,342.954
				c-8.642,0-15.673-7.031-15.673-15.673s7.031-15.673,15.673-15.673s15.673,7.031,15.673,15.673S334.128,342.954,325.486,342.954z"
				/>
			<path d="M193.306,113.1h125.388c5.77,0,10.449-4.678,10.449-10.449c0-5.771-4.679-10.449-10.449-10.449H193.306
				c-5.771,0-10.449,4.678-10.449,10.449C182.857,108.422,187.535,113.1,193.306,113.1z"/>
			<path d="M77.322,154.896h357.355c5.77,0,10.449-4.678,10.449-10.449c0-5.771-4.679-10.449-10.449-10.449H77.322
				c-5.771,0-10.449,4.678-10.449,10.449C66.873,150.218,71.551,154.896,77.322,154.896z"/>
			<path d="M77.322,196.692h357.355c5.77,0,10.449-4.678,10.449-10.449c0-5.771-4.679-10.449-10.449-10.449H77.322
				c-5.771,0-10.449,4.678-10.449,10.449C66.873,192.014,71.551,196.692,77.322,196.692z"/>
			<path d="M77.322,238.488h122.253c5.771,0,10.449-4.678,10.449-10.449c0-5.771-4.678-10.449-10.449-10.449H77.322
				c-5.771,0-10.449,4.678-10.449,10.449C66.873,233.81,71.551,238.488,77.322,238.488z"/>
			<path d="M501.384,22.194H10.282C4.511,22.194,0,27.743,0,33.514v297.796c0,5.771,4.511,9.578,10.282,9.578h236.931
				c-3.958,10.449-8.407,22.048-2.266,32.661c3.782,6.538,9.981,9.987,16.596,11.953l-36.759,69.293
				c-1.3,2.447-1.574,5.343-0.762,7.991s2.643,4.884,5.091,6.184l36.915,19.609c1.561,0.83,3.238,1.227,4.891,1.227
				c3.742,0,7.361-2.014,9.238-5.549l35.195-66.284c3.038,1.435,6.391,2.303,10.136,2.303c3.401,0,6.478-0.719,9.291-1.925
				l34.995,65.907c1.878,3.536,5.495,5.552,9.238,5.552c1.652,0,3.33-0.393,4.891-1.223l36.915-19.6
				c2.448-1.3,4.279-3.518,5.091-6.168c0.811-2.65,0.538-5.513-0.762-7.961l-36.616-68.96c6.953-1.928,13.543-5.514,17.498-12.349
				c6.14-10.614,1.691-22.212-2.267-32.661h97.626c5.77,0,10.616-3.807,10.616-9.578V33.512
				C512,27.743,507.154,22.194,501.384,22.194z M266.598,465.229l-18.457-9.8l34.89-65.711c2.169,0.487,4.053,1.067,5.355,1.82
				c2.553,1.477,5.985,5.836,9.012,9.682c0.621,0.789,1.256,1.595,1.907,2.41L266.598,465.229z M337.153,388.293
				c-3.683,4.679-8.728,11.085-11.667,11.085s-7.984-6.406-11.667-11.085c-4.395-5.583-8.94-11.356-14.966-14.843
				c-6.224-3.601-13.666-4.725-20.864-5.813c-5.107-0.772-13.657-2.064-14.955-4.305c-1.144-1.977,2.01-10.123,3.704-14.498
				c2.682-6.93,5.458-14.095,5.458-21.554c0-7.46-2.774-14.625-5.458-21.554c-1.694-4.376-4.848-12.521-3.704-14.498
				c1.297-2.242,9.847-3.533,14.955-4.305c7.197-1.088,14.639-2.211,20.864-5.813c6.027-3.486,10.571-9.259,14.966-14.842
				c3.683-4.679,8.728-11.085,11.667-11.085s7.984,6.406,11.667,11.085c4.395,5.583,8.94,11.356,14.966,14.843
				c6.224,3.601,13.666,4.725,20.863,5.813c5.107,0.772,13.657,2.064,14.954,4.305c1.144,1.977-2.009,10.123-3.703,14.498
				c-2.682,6.93-5.458,14.095-5.458,21.554c0,7.46,2.774,14.625,5.458,21.554c1.694,4.376,4.847,12.521,3.704,14.498
				c-1.297,2.242-9.847,3.533-14.955,4.305c-7.197,1.088-14.639,2.211-20.863,5.813C346.092,376.937,341.548,382.71,337.153,388.293
				z M401.786,455.429l-18.458,9.801l-32.293-60.818c0.873-1.079,1.718-2.151,2.537-3.191c3.027-3.845,6.46-8.205,9.012-9.681
				c1.113-0.644,2.651-1.161,4.427-1.602L401.786,455.429z M491.102,319.99h-90.024c0.747-2.09,1.699-4.532,2.643-6.968
				c3.967-10.247,8.465-21.737,2.304-32.383c-6.329-10.939-19.409-12.853-29.921-14.44c-5.271-0.796-10.724-1.588-13.519-3.206
				c-2.553-1.477-5.985-5.821-9.012-9.666c-6.683-8.49-15.002-19.047-28.087-19.047s-21.403,10.57-28.087,19.06
				c-3.027,3.845-6.46,8.206-9.012,9.683c-2.796,1.618-8.248,2.442-13.519,3.239c-10.512,1.588-23.592,3.565-29.921,14.503
				c-6.16,10.646-1.664,22.012,2.304,32.259c0.944,2.438,1.895,4.879,2.643,6.968H20.898V43.093h470.204V319.99z"/>
		</g>
	</g>
</g>
<g>
</g>
<g>
</g>
<g>
</g>
<g>
</g>
<g>
</g>
<g>
</g>
<g>
</g>
<g>
</g>
<g>
</g>
<g>
</g>
<g>
</g>
<g>
</g>
<g>
</g>
<g>
</g>
<g>
</g>
</svg>
