<?xml version="1.0" encoding="iso-8859-1"?>
<!-- Generator: Adobe Illustrator 19.0.0, SVG Export Plug-In . SVG Version: 6.00 Build 0)  -->
<svg version="1.1" id="Layer_1" xmlns="http://www.w3.org/2000/svg" xmlns:xlink="http://www.w3.org/1999/xlink" x="0px" y="0px"
	 viewBox="0 0 392.598 392.598" style="enable-background:new 0 0 392.598 392.598;" xml:space="preserve">
<path style="fill:#FFFFFF;" d="M340.364,83.749H41.891c-7.24,0-14.093-1.875-20.105-5.107v261.818
	c0,16.743,13.576,30.384,30.384,30.384h288.259c16.743,0,30.384-13.576,30.384-30.384V114.133
	C370.747,97.455,357.172,83.749,340.364,83.749z"/>
<path style="fill:#56ACE0;" d="M21.786,41.988c0,11.055,8.986,20.105,20.105,20.105h206.093v-40.21H41.891
	C30.836,21.883,21.786,30.869,21.786,41.988z"/>
<path style="fill:#FFC10D;" d="M348.962,340.461c0,4.719-3.879,8.598-8.598,8.598H52.17c-4.719,0-8.598-3.879-8.598-8.598V105.665
	h296.792c4.719,0,8.598,3.879,8.598,8.598V340.461z"/>
<polygon style="fill:#56ACE0;" points="260.784,178.715 311.273,178.715 311.273,138.505 260.784,138.505 "/>
<g>
	<path style="fill:#194F82;" d="M322.133,116.719h-72.21l0,0c-2.844,0-5.624,1.164-7.758,3.168
		c-2.004,2.004-3.168,4.784-3.168,7.758v62.125c0,6.012,4.848,10.925,10.925,10.925h72.275c6.012,0,10.925-4.848,10.925-10.925
		v-62.125C333.059,121.568,328.145,116.719,322.133,116.719z M311.273,178.715h-50.489v-40.339h50.489V178.715z"/>
	<path style="fill:#194F82;" d="M322.133,245.883H69.366c-6.012,0-10.925-4.848-10.925-10.925c0-6.012,4.848-10.925,10.925-10.925
		h252.768c6.012,0,10.925,4.848,10.925,10.925C333.059,241.034,328.145,245.883,322.133,245.883z"/>
	<path style="fill:#194F82;" d="M195.814,200.566H69.366c-6.012,0-10.925-4.848-10.925-10.925c0-6.012,4.848-10.925,10.925-10.925
		h126.319c6.012,0,10.925,4.848,10.925,10.925C206.61,195.653,201.762,200.566,195.814,200.566z"/>
	<path style="fill:#194F82;" d="M322.133,291.265H69.366c-6.012,0-10.925-4.848-10.925-10.925c0-6.012,4.848-10.925,10.925-10.925
		h252.768c6.012,0,10.925,4.849,10.925,10.925C333.059,286.416,328.145,291.265,322.133,291.265z"/>
	<path style="fill:#194F82;" d="M322.133,336.582H69.366c-6.012,0-10.925-4.848-10.925-10.925c0-6.012,4.848-10.925,10.925-10.925
		h252.768c6.012,0,10.925,4.848,10.925,10.925C333.059,331.733,328.145,336.582,322.133,336.582z"/>
	<path style="fill:#194F82;" d="M87.467,121.309h8.339v37.236h-8.339l-17.778-23.337v23.337H61.35v-37.236h7.822l18.23,23.984
		v-23.984H87.467z"/>
	<path style="fill:#194F82;" d="M131.749,121.309v7.434h-18.554v7.628h16.679v7.111h-16.679v7.758h19.071v7.37h-27.41v-37.236
		h26.893V121.309z"/>
	<path style="fill:#194F82;" d="M151.402,142.836l6.594-21.398h8.663l6.594,21.398l7.434-21.398h9.051l-12.994,37.236h-6.206
		l-8.21-25.988l-8.145,25.859h-6.206l-12.994-37.236h9.05L151.402,142.836z"/>
	<path style="fill:#194F82;" d="M340.364,61.964H269.77V10.958c0-6.012-4.848-10.925-10.925-10.925H41.891
		C18.812,0.032,0,18.78,0,41.923v298.473c0,28.768,23.402,52.17,52.17,52.17h288.259c28.768,0,52.17-23.402,52.17-52.17V114.133
		C392.533,85.43,369.131,61.964,340.364,61.964z M41.891,21.883h206.093v40.081H41.891c-11.055,0-20.105-8.986-20.105-20.04
		S30.836,21.883,41.891,21.883z M370.747,340.461c0,16.743-13.576,30.384-30.384,30.384H52.17
		c-16.743,0-30.384-13.576-30.384-30.384V78.707c5.947,3.232,12.8,5.107,20.105,5.107h298.473c16.743,0,30.384,13.576,30.384,30.384
		V340.461z"/>
	<path style="fill:#194F82;" d="M207.257,151.693c-3.426,0-7.111-1.745-11.119-5.236l-4.913,6.012
		c4.719,4.331,10.02,6.465,15.903,6.465c8.016,0,13.705-4.655,13.705-11.184c0.323-6.4-4.202-9.826-11.184-11.507
		c-5.107-1.422-8.145-2.263-8.275-4.784c0.259-2.069,1.422-3.556,4.461-3.556c3.491,0,6.788,1.228,10.02,3.62l4.267-6.012
		c-3.814-2.909-8.275-4.784-13.964-4.848c-8.275,0.453-13.123,3.879-13.382,10.99c0,6.723,4.008,9.826,12.541,11.766
		c3.62,0.905,7.111,1.939,6.853,4.655C212.234,150.4,209.455,151.822,207.257,151.693z"/>
</g>
<g>
</g>
<g>
</g>
<g>
</g>
<g>
</g>
<g>
</g>
<g>
</g>
<g>
</g>
<g>
</g>
<g>
</g>
<g>
</g>
<g>
</g>
<g>
</g>
<g>
</g>
<g>
</g>
<g>
</g>
</svg>
