<?xml version="1.0" ?><svg width="32px" height="32px" viewBox="0 0 32 32" xmlns="http://www.w3.org/2000/svg"><title/><path d="M11.588,16.369l10.018,10.85a3.869,3.869,0,0,0,2.763,1.271h.1a3.851,3.851,0,0,0,3.846-3.933,3.879,3.879,0,0,0-1.261-2.773L16.2,11.768A7,7,0,0,0,6.493,3.381a1,1,0,0,0-.269,1.607L9.515,8.271,8.1,9.687,4.806,6.4A1,1,0,0,0,3.2,6.676a6.993,6.993,0,0,0,8.389,9.693ZM4.562,8.983l2.832,2.825a1,1,0,0,0,1.413,0l2.83-2.83a1,1,0,0,0,0-1.415L8.8,4.736a5,5,0,0,1,5.308,6.919,1,1,0,0,0,.241,1.129L25.707,23.26a1.853,1.853,0,0,1,.612,1.342,1.827,1.827,0,0,1-.543,1.348l0,0a1.867,1.867,0,0,1-1.353.537,1.844,1.844,0,0,1-1.337-.619L12.6,14.522a1,1,0,0,0-1.131-.24,5,5,0,0,1-6.912-5.3Z"/></svg>