<?xml version="1.0" encoding="iso-8859-1"?>
<!-- Generator: Adobe Illustrator 16.0.0, SVG Export Plug-In . SVG Version: 6.00 Build 0)  -->
<!DOCTYPE svg PUBLIC "-//W3C//DTD SVG 1.1//EN" "http://www.w3.org/Graphics/SVG/1.1/DTD/svg11.dtd">
<svg version="1.1" id="Capa_1" xmlns="http://www.w3.org/2000/svg" xmlns:xlink="http://www.w3.org/1999/xlink" x="0px" y="0px"
	 width="502.714px" height="502.715px" viewBox="0 0 502.714 502.715" style="enable-background:new 0 0 502.714 502.715;"
	 xml:space="preserve">
<g>
	<path d="M449.958,485.949l-32.375-327.957c-0.682-6.923-6.508-12.195-13.465-12.195h-60.545V92.289
		C343.573,41.394,302.173,0,251.292,0c-50.887,0-92.282,41.395-92.282,92.289v53.509H98.458c-6.956,0-12.776,5.272-13.464,12.195
		L52.433,487.852c-0.377,3.805,0.872,7.586,3.436,10.412c2.563,2.84,6.209,4.451,10.027,4.451h370.792c0.04,0,0.085,0,0.132,0
		c7.473,0,13.529-6.062,13.529-13.527C450.348,488.064,450.216,486.982,449.958,485.949z M186.068,92.289
		c0-35.963,29.259-65.23,65.223-65.23s65.223,29.268,65.223,65.23v53.509H186.068V92.289z M110.718,172.857h48.291v27.376
		c0,7.464,6.059,13.528,13.53,13.528c7.472,0,13.529-6.064,13.529-13.528v-27.376h130.446v27.376
		c0,7.464,6.058,13.528,13.528,13.528c7.472,0,13.529-6.064,13.529-13.528v-27.376h48.286l24.62,249.37H86.098L110.718,172.857z
		 M80.825,475.66l2.603-26.373h335.727l2.603,26.373H80.825z"/>
</g>
<g>
</g>
<g>
</g>
<g>
</g>
<g>
</g>
<g>
</g>
<g>
</g>
<g>
</g>
<g>
</g>
<g>
</g>
<g>
</g>
<g>
</g>
<g>
</g>
<g>
</g>
<g>
</g>
<g>
</g>
</svg>
